# xmcd
#
# Track frame offsets: 
#        150
#        12692
#        29177
#        43565
#        56615
#        67180
#        93905
#        105862
#
# Disc length: 1562 seconds
#
# Revision: 0
# Processed by: cddbd v1.5.1PL2 Copyright (c) Steve Scherf et al.
# Submitted via: ExactAudioCopy v0.95b3
#
DISCID=6a061808
DTITLE=Various Artist - Blue Evolution
DYEAR=1996
DGENRE=Blues
TTITLE0=Luther Allison - Part Time Love
TTITLE1=Luther Allison - Now You Got It
TTITLE2=Mable John -  Take Me
TTITLE3=Sammy Ward - Bread Winner
TTITLE4=Earl King - A Man and A Book
TTITLE5=Sammy Ward - Someday Pretty Baby
TTITLE6=Amos Milburn - Hold Me Baby
TTITLE7=Amos Milburn - I'll Leave You In His Care
EXTD=
EXTT0=
EXTT1=
EXTT2=
EXTT3=
EXTT4=
EXTT5=
EXTT6=
EXTT7=
PLAYORDER=
